<mxfile host="app.diagrams.net" modified="2023-09-25T06:26:46.291Z" agent="Mozilla/5.0 (Macintosh; Intel Mac OS X 10_15_7) AppleWebKit/537.36 (KHTML, like Gecko) Chrome/117.0.0.0 Safari/537.36 Edg/117.0.2045.40" version="21.8.0" etag="0Qt7qR_kuDpjD6KeISra" type="github">
  <diagram name="第 1 页" id="S1rpEItnTo3BRlyxE59Z">
    <mxGraphModel>
      <root>
        <mxCell id="0" />
        <mxCell id="1" parent="0" />
      </root>
    </mxGraphModel>
  </diagram>
</mxfile>
